<svg width="518" height="744" viewBox="0 0 518 744" fill="none" xmlns="http://www.w3.org/2000/svg">
<path d="M102.974 226.495H61.2085L60 222H101.766L102.974 226.495Z" fill="#DCE1FF"/>
<path d="M102.967 240.991H61.2085L60 236.495H101.759L102.967 240.991Z" fill="#DCE1FF"/>
<path d="M102.967 255.486H61.2085L60 250.991H101.759L102.967 255.486Z" fill="#DCE1FF"/>
<path d="M291.696 327.366C293.134 327.366 294.299 326.201 294.299 324.763C294.299 323.326 293.134 322.16 291.696 322.16C290.259 322.16 289.093 323.326 289.093 324.763C289.093 326.201 290.259 327.366 291.696 327.366Z" stroke="#1EFBFF" stroke-miterlimit="10"/>
<path d="M151.892 307.013C153.266 298.598 147.558 290.663 139.143 289.29C130.728 287.916 122.793 293.624 121.419 302.039C120.046 310.454 125.754 318.389 134.169 319.762C142.584 321.136 150.519 315.428 151.892 307.013Z" stroke="#1EFBFF" stroke-miterlimit="10"/>
<path d="M279.183 379.023L273.389 384.817L279.183 390.611L284.977 384.817L279.183 379.023Z" stroke="#1EFBFF" stroke-miterlimit="10"/>
<path d="M194.985 265.486L192.661 267.81L194.985 270.134L197.309 267.81L194.985 265.486Z" stroke="#1EFBFF" stroke-miterlimit="10"/>
<path d="M249.307 328.481L253.848 333.03" stroke="#1EFBFF" stroke-miterlimit="10"/>
<path d="M253.848 328.481L249.307 333.03" stroke="#1EFBFF" stroke-miterlimit="10"/>
<path d="M346.669 282.493L351.211 287.041" stroke="#1EFBFF" stroke-miterlimit="10"/>
<path d="M351.211 282.493L346.669 287.041" stroke="#1EFBFF" stroke-miterlimit="10"/>
<path d="M369.703 477.536H82.2905V504.023H369.703V477.536Z" fill="#0E42E5"/>
<path d="M392 502.164H60V554.567H392V502.164Z" fill="#4361EE"/>
<path d="M60 409.669H73.1738V397.551H89.7671V386.163H125.663V410.393L60 444.648V409.669Z" fill="#082A9B"/>
<path d="M125.663 410.393H107.303L60 437.338V444.648L125.663 410.393Z" fill="#0D165B"/>
<path d="M125.663 386.164H107.303V410.393H125.663V386.164Z" fill="#1F4CFF"/>
<path d="M106.374 416.05H101.082V477.53H106.374V416.05Z" fill="#0D165B"/>
<path d="M74.6148 435.99H69.3228V500.219H74.6148V435.99Z" fill="#0D165B"/>
<path d="M119.023 413.102H113.731V477.53H119.023V413.102Z" fill="#0D165B"/>
<path d="M158.996 494.17L135.577 404.868H211.12L158.996 494.17Z" fill="#0CC1C1"/>
<path d="M182.694 404.868H146.798L164.766 462.092H177.714L200.157 423.646L182.694 404.868Z" fill="#04A5A0"/>
<path d="M259.838 435.711H169.62L131.772 303.256H221.99L259.838 435.711Z" fill="white"/>
<path d="M174.527 344.564H150.696L140.696 309.578H164.527L174.527 344.564Z" fill="#B9C3EF"/>
<path d="M215.031 314.073H173.266L172.057 309.578H213.823L215.031 314.073Z" fill="#B9C3EF"/>
<path d="M217.687 323.196H175.928L174.72 318.701H216.479L217.687 323.196Z" fill="#B9C3EF"/>
<path d="M220.35 332.32H178.591L177.382 327.824H219.141L220.35 332.32Z" fill="#B9C3EF"/>
<path d="M223.012 341.443H181.247L180.038 336.948H221.804L223.012 341.443Z" fill="#B9C3EF"/>
<path d="M225.675 350.566H183.909L182.701 346.071H224.466L225.675 350.566Z" fill="#B9C3EF"/>
<path d="M228.331 359.69H186.572L185.364 355.195H227.123L228.331 359.69Z" fill="#B9C3EF"/>
<path d="M276.491 454.974H186.273L148.425 322.519H238.643L276.491 454.974Z" fill="#DCE1FF"/>
<path d="M192.455 365.148H168.624L158.624 330.162H182.455L192.455 365.148Z" fill="#B9C3EF"/>
<path d="M232.959 334.657H191.193L189.985 330.162H231.75L232.959 334.657Z" fill="#B9C3EF"/>
<path d="M235.615 343.78H193.856L192.647 339.285H234.406L235.615 343.78Z" fill="#B9C3EF"/>
<path d="M238.277 352.904H196.519L195.31 348.408H237.069L238.277 352.904Z" fill="#B9C3EF"/>
<path d="M240.94 362.027H199.174L197.966 357.532H239.731L240.94 362.027Z" fill="#B9C3EF"/>
<path d="M243.603 371.15H201.837L200.629 366.655H242.395L243.603 371.15Z" fill="#B9C3EF"/>
<path d="M246.259 380.274H204.5L203.292 375.779H245.05L246.259 380.274Z" fill="#B9C3EF"/>
<path d="M279.107 425.114L255.296 341.775H165.078L202.926 474.236H262.241L279.107 425.114Z" fill="white"/>
<path d="M282.376 384.404H258.545L248.545 349.418H272.376L282.376 384.404Z" fill="#DCE1FF"/>
<path d="M322.88 353.913H281.114L279.906 349.418H321.671L322.88 353.913Z" fill="#DCE1FF"/>
<path d="M325.536 363.036H283.777L282.568 358.541H324.327L325.536 363.036Z" fill="#DCE1FF"/>
<path d="M328.198 372.16H286.439L285.231 367.665H326.99L328.198 372.16Z" fill="#DCE1FF"/>
<path d="M330.861 381.284H289.096L287.887 376.788H329.653L330.861 381.284Z" fill="#DCE1FF"/>
<path d="M333.523 390.407H291.758L290.549 385.911H332.315L333.523 390.407Z" fill="#DCE1FF"/>
<path d="M336.18 399.53H294.421L293.212 395.035H334.971L336.18 399.53Z" fill="#DCE1FF"/>
<path d="M227.295 402.053L223.876 395.473H194.533L192.196 402.053L158.996 494.17H269.047L302.247 402.053H227.295Z" fill="#1EFBFF"/>
<path d="M214.42 450.1H217.567L216.823 452.318H213.676L211.525 458.719H209.088L214.307 443.207H220.754L220.011 445.425H216L214.426 450.1H214.42Z" fill="#006CFF"/>
<path d="M225.914 443.207H228.351L223.132 458.719H220.695L225.914 443.207Z" fill="#006CFF"/>
<path d="M234.114 443.207H236.551L232.076 456.501H236.086L235.342 458.719H228.895L234.114 443.207Z" fill="#006CFF"/>
<path d="M245.854 449.748H249.2L248.457 451.966H245.11L243.583 456.508H247.793L247.049 458.725H240.402L245.621 443.214H252.268L251.524 445.432H247.315L245.86 449.755L245.854 449.748Z" fill="#006CFF"/>
<path d="M261.099 443.035C263.469 443.035 264.213 444.456 263.376 446.933L263.21 447.417H260.906L261.125 446.773C261.497 445.664 261.199 445.246 260.422 445.246C259.645 445.246 259.06 445.664 258.689 446.773C257.613 449.967 262.175 450.565 260.687 454.994C259.851 457.477 258.137 458.891 255.74 458.891C253.343 458.891 252.586 457.47 253.416 454.994L253.735 454.044H256.039L255.667 455.153C255.296 456.262 255.647 456.66 256.424 456.66C257.201 456.66 257.819 456.262 258.191 455.153C259.266 451.966 254.698 451.362 256.192 446.933C257.029 444.449 258.722 443.035 261.092 443.035H261.099Z" fill="#006CFF"/>
<path d="M305.972 377.252L332.134 411.223C332.134 411.223 336.729 410.691 339.81 406.156L312.513 372.08L305.972 377.252Z" fill="#0D165B"/>
<path d="M301.55 341.954C289.625 330.029 275.515 324.809 270.037 330.287C268.861 331.463 268.184 333.03 267.952 334.889C274.771 334.039 285.495 339.265 294.864 348.64C304.233 358.009 309.465 368.726 308.615 375.552C310.474 375.32 312.048 374.643 313.217 373.467C318.701 367.983 313.476 353.873 301.55 341.954Z" fill="#FCCB01"/>
<path opacity="0.3" d="M309.866 376.809C315.348 371.327 310.126 357.218 298.203 345.295C286.28 333.372 272.171 328.15 266.689 333.632C261.208 339.114 266.429 353.223 278.352 365.146C290.275 377.069 304.384 382.291 309.866 376.809Z" fill="white"/>
<g opacity="0.3">
<path d="M268.164 335.108C269.08 334.046 270.448 333.402 271.843 333.13C273.25 332.864 274.698 332.917 276.099 333.149C278.908 333.601 281.557 334.683 284.054 335.971C286.544 337.286 288.874 338.86 291.052 340.619C293.237 342.372 295.242 344.331 297.075 346.429C294.97 344.603 292.805 342.87 290.574 341.244C288.33 339.637 286.019 338.129 283.582 336.861C281.159 335.58 278.615 334.504 275.953 333.913C274.625 333.628 273.264 333.475 271.916 333.608C270.561 333.714 269.24 334.205 268.171 335.102L268.164 335.108Z" fill="white"/>
</g>
<path d="M282.154 361.35C270.78 349.975 265.8 336.516 271.026 331.284L270.03 330.288L263.343 336.974C257.859 342.459 263.084 356.569 275.01 368.488C286.935 380.413 301.045 385.632 306.523 380.154L313.21 373.468L312.214 372.472C306.981 377.704 293.522 372.717 282.148 361.343L282.154 361.35Z" fill="#FCCB01"/>
<path d="M301.55 341.954C289.625 330.029 275.515 324.809 270.037 330.287C264.552 335.772 269.778 349.882 281.703 361.801C293.628 373.726 307.738 378.945 313.216 373.467C318.701 367.983 313.475 353.873 301.55 341.954ZM312.36 372.146C307.287 377.219 293.994 372.159 282.672 360.831C271.351 349.51 266.285 336.217 271.365 331.144C276.444 326.071 289.731 331.131 301.052 342.452C312.373 353.773 317.44 367.066 312.36 372.139V372.146Z" fill="#FFEEA9"/>
<path d="M326.656 389.736L322.818 399.131L332.127 411.223C332.127 411.223 336.722 410.691 339.803 406.156L326.649 389.736H326.656Z" fill="#0D165B"/>
<path d="M102.974 569.062H61.2085L60 564.567H101.766L102.974 569.062Z" fill="#DCE1FF"/>
<path d="M102.967 583.558H61.2085L60 579.062H101.759L102.967 583.558Z" fill="#DCE1FF"/>
<rect x="0.5" y="162.5" width="451" height="480.558" rx="19.5" stroke="#EAE9E9"/>
<path d="M171.603 50.2058C173.04 50.2058 174.206 49.0404 174.206 47.6029C174.206 46.1654 173.04 45 171.603 45C170.165 45 169 46.1654 169 47.6029C169 49.0404 170.165 50.2058 171.603 50.2058Z" stroke="#1EFBFF" stroke-miterlimit="10"/>
<path d="M333.603 743.206C335.04 743.206 336.206 742.04 336.206 740.603C336.206 739.165 335.04 738 333.603 738C332.165 738 331 739.165 331 740.603C331 742.04 332.165 743.206 333.603 743.206Z" stroke="#1EFBFF" stroke-miterlimit="10"/>
<path d="M280.794 111L275 116.794L280.794 122.588L286.588 116.794L280.794 111Z" stroke="#1EFBFF" stroke-miterlimit="10"/>
<path d="M367.794 1.00012L362 6.79398L367.794 12.5878L373.588 6.79398L367.794 1.00012Z" stroke="#1EFBFF" stroke-miterlimit="10"/>
<path d="M203.794 699L198 704.794L203.794 710.588L209.588 704.794L203.794 699Z" stroke="#1EFBFF" stroke-miterlimit="10"/>
<path d="M44.9596 137.21C46.3331 128.795 40.6249 120.86 32.2101 119.487C23.7953 118.113 15.8603 123.821 14.4869 132.236C13.1134 140.651 18.8216 148.586 27.2364 149.96C35.6512 151.333 43.5862 145.625 44.9596 137.21Z" stroke="#1EFBFF" stroke-miterlimit="10"/>
<path d="M466.96 93.21C468.333 84.7952 462.625 76.8602 454.21 75.4868C445.795 74.1133 437.86 79.8215 436.487 88.2363C435.113 96.6511 440.822 104.586 449.236 105.96C457.651 107.333 465.586 101.625 466.96 93.21Z" stroke="#1EFBFF" stroke-miterlimit="10"/>
<path d="M39.9596 719.21C41.3331 710.795 35.6249 702.86 27.2101 701.487C18.7953 700.113 10.8603 705.822 9.48686 714.236C8.11341 722.651 13.8216 730.586 22.2364 731.96C30.6512 733.333 38.5862 727.625 39.9596 719.21Z" stroke="#1EFBFF" stroke-miterlimit="10"/>
<path d="M158.96 621.21C160.333 612.795 154.625 604.86 146.21 603.487C137.795 602.113 129.86 607.822 128.487 616.236C127.113 624.651 132.822 632.586 141.236 633.96C149.651 635.333 157.586 629.625 158.96 621.21Z" stroke="#1EFBFF" stroke-miterlimit="10"/>
<path d="M514.96 345.21C516.333 336.795 510.625 328.86 502.21 327.487C493.795 326.113 485.86 331.821 484.487 340.236C483.113 348.651 488.822 356.586 497.236 357.96C505.651 359.333 513.586 353.625 514.96 345.21Z" stroke="#1EFBFF" stroke-miterlimit="10"/>
</svg>
